<mxfile host="Electron" agent="Mozilla/5.0 (Windows NT 10.0; Win64; x64) AppleWebKit/537.36 (KHTML, like Gecko) draw.io/26.2.2 Chrome/134.0.6998.178 Electron/35.1.2 Safari/537.36" version="26.2.2">
  <diagram name="Page-1" id="BqWQJdpRSrKuD5TiShCt">
    <mxGraphModel dx="788" dy="524" grid="1" gridSize="10" guides="1" tooltips="1" connect="1" arrows="1" fold="1" page="1" pageScale="1" pageWidth="850" pageHeight="1100" math="0" shadow="0">
      <root>
        <mxCell id="0" />
        <mxCell id="1" parent="0" />
        <mxCell id="VVlkRnO7DSFQBUWDWM9F-5" style="edgeStyle=orthogonalEdgeStyle;rounded=0;orthogonalLoop=1;jettySize=auto;html=1;exitX=1;exitY=0.25;exitDx=0;exitDy=0;entryX=0;entryY=0.25;entryDx=0;entryDy=0;" edge="1" parent="1" source="VVlkRnO7DSFQBUWDWM9F-1" target="VVlkRnO7DSFQBUWDWM9F-2">
          <mxGeometry relative="1" as="geometry" />
        </mxCell>
        <mxCell id="VVlkRnO7DSFQBUWDWM9F-1" value="A Recrutiter" style="html=1;whiteSpace=wrap;" vertex="1" parent="1">
          <mxGeometry x="110" y="150" width="130" height="70" as="geometry" />
        </mxCell>
        <mxCell id="VVlkRnO7DSFQBUWDWM9F-9" style="edgeStyle=orthogonalEdgeStyle;rounded=0;orthogonalLoop=1;jettySize=auto;html=1;exitX=0.5;exitY=1;exitDx=0;exitDy=0;entryX=0.5;entryY=0;entryDx=0;entryDy=0;" edge="1" parent="1" source="VVlkRnO7DSFQBUWDWM9F-2" target="VVlkRnO7DSFQBUWDWM9F-3">
          <mxGeometry relative="1" as="geometry" />
        </mxCell>
        <mxCell id="VVlkRnO7DSFQBUWDWM9F-11" style="edgeStyle=orthogonalEdgeStyle;rounded=0;orthogonalLoop=1;jettySize=auto;html=1;exitX=0;exitY=0.75;exitDx=0;exitDy=0;entryX=1;entryY=0.75;entryDx=0;entryDy=0;" edge="1" parent="1" source="VVlkRnO7DSFQBUWDWM9F-2" target="VVlkRnO7DSFQBUWDWM9F-1">
          <mxGeometry relative="1" as="geometry" />
        </mxCell>
        <mxCell id="VVlkRnO7DSFQBUWDWM9F-2" value="A Job System" style="html=1;whiteSpace=wrap;" vertex="1" parent="1">
          <mxGeometry x="440" y="160" width="130" height="70" as="geometry" />
        </mxCell>
        <mxCell id="VVlkRnO7DSFQBUWDWM9F-15" style="edgeStyle=orthogonalEdgeStyle;rounded=0;orthogonalLoop=1;jettySize=auto;html=1;exitX=0;exitY=0.75;exitDx=0;exitDy=0;entryX=1;entryY=0.75;entryDx=0;entryDy=0;" edge="1" parent="1" source="VVlkRnO7DSFQBUWDWM9F-3" target="VVlkRnO7DSFQBUWDWM9F-4">
          <mxGeometry relative="1" as="geometry" />
        </mxCell>
        <mxCell id="VVlkRnO7DSFQBUWDWM9F-3" value="&amp;nbsp;A Job Database" style="html=1;whiteSpace=wrap;" vertex="1" parent="1">
          <mxGeometry x="440" y="360" width="130" height="70" as="geometry" />
        </mxCell>
        <mxCell id="VVlkRnO7DSFQBUWDWM9F-13" style="edgeStyle=orthogonalEdgeStyle;rounded=0;orthogonalLoop=1;jettySize=auto;html=1;exitX=1;exitY=0.25;exitDx=0;exitDy=0;entryX=0;entryY=0.25;entryDx=0;entryDy=0;" edge="1" parent="1" source="VVlkRnO7DSFQBUWDWM9F-4" target="VVlkRnO7DSFQBUWDWM9F-3">
          <mxGeometry relative="1" as="geometry" />
        </mxCell>
        <mxCell id="VVlkRnO7DSFQBUWDWM9F-4" value="A Candidate" style="html=1;whiteSpace=wrap;" vertex="1" parent="1">
          <mxGeometry x="110" y="360" width="130" height="70" as="geometry" />
        </mxCell>
        <mxCell id="VVlkRnO7DSFQBUWDWM9F-6" value="1:createJobPosting()" style="text;html=1;align=center;verticalAlign=middle;resizable=0;points=[];autosize=1;strokeColor=none;fillColor=none;" vertex="1" parent="1">
          <mxGeometry x="230" y="138" width="130" height="30" as="geometry" />
        </mxCell>
        <mxCell id="VVlkRnO7DSFQBUWDWM9F-7" value="" style="curved=1;endArrow=classic;html=1;rounded=0;entryX=0.75;entryY=0;entryDx=0;entryDy=0;exitX=1;exitY=0.5;exitDx=0;exitDy=0;" edge="1" parent="1" source="VVlkRnO7DSFQBUWDWM9F-2" target="VVlkRnO7DSFQBUWDWM9F-2">
          <mxGeometry width="50" height="50" relative="1" as="geometry">
            <mxPoint x="570" y="180" as="sourcePoint" />
            <mxPoint x="560" y="140" as="targetPoint" />
            <Array as="points">
              <mxPoint x="600" y="190" />
              <mxPoint x="650" y="140" />
            </Array>
          </mxGeometry>
        </mxCell>
        <mxCell id="VVlkRnO7DSFQBUWDWM9F-8" value="2:validateJobDetails()" style="text;html=1;align=center;verticalAlign=middle;resizable=0;points=[];autosize=1;strokeColor=none;fillColor=none;" vertex="1" parent="1">
          <mxGeometry x="590" y="180" width="140" height="30" as="geometry" />
        </mxCell>
        <mxCell id="VVlkRnO7DSFQBUWDWM9F-10" value="3:storeJobListing()" style="text;html=1;align=center;verticalAlign=middle;resizable=0;points=[];autosize=1;strokeColor=none;fillColor=none;" vertex="1" parent="1">
          <mxGeometry x="500" y="278" width="120" height="30" as="geometry" />
        </mxCell>
        <mxCell id="VVlkRnO7DSFQBUWDWM9F-12" value="4:publishJob()" style="text;html=1;align=center;verticalAlign=middle;resizable=0;points=[];autosize=1;strokeColor=none;fillColor=none;" vertex="1" parent="1">
          <mxGeometry x="230" y="210" width="100" height="30" as="geometry" />
        </mxCell>
        <mxCell id="VVlkRnO7DSFQBUWDWM9F-14" value="5:searchJobs()" style="text;html=1;align=center;verticalAlign=middle;resizable=0;points=[];autosize=1;strokeColor=none;fillColor=none;" vertex="1" parent="1">
          <mxGeometry x="245" y="348" width="100" height="30" as="geometry" />
        </mxCell>
        <mxCell id="VVlkRnO7DSFQBUWDWM9F-17" value="6:returnJobResults()" style="text;html=1;align=center;verticalAlign=middle;resizable=0;points=[];autosize=1;strokeColor=none;fillColor=none;" vertex="1" parent="1">
          <mxGeometry x="240" y="408" width="130" height="30" as="geometry" />
        </mxCell>
      </root>
    </mxGraphModel>
  </diagram>
</mxfile>
